<?xml version="1.0" encoding="utf-8"?>
<!-- Generator: Adobe Illustrator 15.0.0, SVG Export Plug-In . SVG Version: 6.00 Build 0)  -->
<!DOCTYPE svg PUBLIC "-//W3C//DTD SVG 1.1//EN" "http://www.w3.org/Graphics/SVG/1.1/DTD/svg11.dtd">
<svg version="1.1" id="Layer_1" xmlns="http://www.w3.org/2000/svg" xmlns:xlink="http://www.w3.org/1999/xlink" x="0px" y="0px"
	 width="483px" height="397.05px" viewBox="0 0 483 397.05" enable-background="new 0 0 483 397.05" xml:space="preserve">
<g>
	<defs>
		<rect id="SVGID_1_" x="0" y="-62.653" width="483" height="459.703"/>
	</defs>
	<clipPath id="SVGID_2_">
		<use xlink:href="#SVGID_1_"  overflow="visible"/>
	</clipPath>
	<g clip-path="url(#SVGID_2_)">
		<defs>
			<path id="SVGID_3_" d="M9.493,274.369c-12.657,12.655-12.657,33.179,0,45.836c12.657,12.658,33.178,12.658,45.834,0
				c12.658-12.657,12.658-33.181,0-45.836c-6.327-6.328-14.622-9.492-22.916-9.492C24.116,264.877,15.821,268.041,9.493,274.369"/>
		</defs>
		<clipPath id="SVGID_4_">
			<use xlink:href="#SVGID_3_"  overflow="visible"/>
		</clipPath>
		
			<linearGradient id="SVGID_5_" gradientUnits="userSpaceOnUse" x1="67.5244" y1="333.6328" x2="68.9027" y2="333.6328" gradientTransform="matrix(-33.2493 33.2493 33.2493 33.2493 -8791.8301 -13063.0244)">
			<stop  offset="0" style="stop-color:#D4088C"/>
			<stop  offset="0.07" style="stop-color:#C7088C"/>
			<stop  offset="0.4736" style="stop-color:#83078A"/>
			<stop  offset="0.7654" style="stop-color:#580689"/>
			<stop  offset="0.914" style="stop-color:#480689"/>
			<stop  offset="1" style="stop-color:#480689"/>
		</linearGradient>
		<polygon clip-path="url(#SVGID_4_)" fill="url(#SVGID_5_)" points="101.978,298.87 32.411,368.438 -37.157,298.87 32.411,229.303 
					"/>
	</g>
	<g clip-path="url(#SVGID_2_)">
		<defs>
			<path id="SVGID_6_" d="M60.939,68.282c0,7.414,6.01,13.422,13.421,13.422c7.414,0,13.423-6.008,13.423-13.422
				c0-7.412-6.01-13.421-13.423-13.421C66.949,54.861,60.939,60.87,60.939,68.282"/>
		</defs>
		<clipPath id="SVGID_7_">
			<use xlink:href="#SVGID_6_"  overflow="visible"/>
		</clipPath>
		
			<linearGradient id="SVGID_8_" gradientUnits="userSpaceOnUse" x1="68.4795" y1="332.541" x2="69.8579" y2="332.541" gradientTransform="matrix(-19.4725 0 0 19.4725 1421.2545 -6407.1113)">
			<stop  offset="0" style="stop-color:#6EE8FC"/>
			<stop  offset="0.1574" style="stop-color:#6AE2FB"/>
			<stop  offset="0.3679" style="stop-color:#5ED1F7"/>
			<stop  offset="0.6084" style="stop-color:#4BB5F1"/>
			<stop  offset="0.8694" style="stop-color:#318FE8"/>
			<stop  offset="0.9624" style="stop-color:#267FE5"/>
			<stop  offset="1" style="stop-color:#267FE5"/>
		</linearGradient>
		<rect x="60.939" y="54.861" clip-path="url(#SVGID_7_)" fill="url(#SVGID_8_)" width="26.844" height="26.843"/>
	</g>
	<g clip-path="url(#SVGID_2_)">
		<defs>
			<path id="SVGID_9_" d="M437.271,188.285c-5.927,11.931-1.063,26.407,10.867,32.335c11.932,5.929,26.408,1.063,32.335-10.868
				c1.689-3.4,2.504-7.009,2.525-10.566v-0.298c-0.055-8.814-4.958-17.278-13.392-21.469c-3.449-1.714-7.109-2.525-10.716-2.525
				C450.022,174.894,441.484,179.806,437.271,188.285"/>
		</defs>
		<clipPath id="SVGID_10_">
			<use xlink:href="#SVGID_9_"  overflow="visible"/>
		</clipPath>
		
			<linearGradient id="SVGID_11_" gradientUnits="userSpaceOnUse" x1="67.4512" y1="334.3115" x2="68.8299" y2="334.3115" gradientTransform="matrix(39.2026 19.4809 19.4809 -39.2026 -8723.543 11980.7871)">
			<stop  offset="0" style="stop-color:#6EE8FC"/>
			<stop  offset="0.1574" style="stop-color:#6AE2FB"/>
			<stop  offset="0.3679" style="stop-color:#5ED1F7"/>
			<stop  offset="0.6084" style="stop-color:#4BB5F1"/>
			<stop  offset="0.8694" style="stop-color:#318FE8"/>
			<stop  offset="0.9624" style="stop-color:#267FE5"/>
			<stop  offset="1" style="stop-color:#267FE5"/>
		</linearGradient>
		<polygon clip-path="url(#SVGID_10_)" fill="url(#SVGID_11_)" points="441.573,154.308 503.584,185.123 472.77,247.134 
			410.759,216.319 		"/>
	</g>
	<g clip-path="url(#SVGID_2_)">
		<defs>
			<rect id="SVGID_12_" x="0" y="-62.653" width="483" height="459.703"/>
		</defs>
		<clipPath id="SVGID_13_">
			<use xlink:href="#SVGID_12_"  overflow="visible"/>
		</clipPath>
		<g opacity="0.8" clip-path="url(#SVGID_13_)">
			<g>
				<defs>
					<rect id="SVGID_14_" x="65.104" y="112.126" width="18.515" height="10.689"/>
				</defs>
				<clipPath id="SVGID_15_">
					<use xlink:href="#SVGID_14_"  overflow="visible"/>
				</clipPath>
				<path clip-path="url(#SVGID_15_)" fill="#0C0F38" d="M77.31,122.536c-4.846,0.94-10.092-0.565-11.722-3.362
					c-1.628-2.799,0.98-5.829,5.825-6.769c4.845-0.939,10.092,0.566,11.721,3.363C84.762,118.566,82.155,121.596,77.31,122.536"/>
			</g>
		</g>
		<g opacity="0.8" clip-path="url(#SVGID_13_)">
			<g>
				<defs>
					<rect id="SVGID_16_" x="159.592" y="9" width="6.875" height="6.875"/>
				</defs>
				<clipPath id="SVGID_17_">
					<use xlink:href="#SVGID_16_"  overflow="visible"/>
				</clipPath>
				<path clip-path="url(#SVGID_17_)" fill="#D4088C" d="M166.466,12.438c0,1.898-1.539,3.438-3.438,3.438
					c-1.898,0-3.436-1.54-3.436-3.438c0-1.898,1.538-3.438,3.436-3.438C164.927,9,166.466,10.54,166.466,12.438"/>
			</g>
		</g>
		<g opacity="0.8" clip-path="url(#SVGID_13_)">
			<g>
				<defs>
					<rect id="SVGID_18_" x="98.616" y="357.937" width="8.285" height="8.285"/>
				</defs>
				<clipPath id="SVGID_19_">
					<use xlink:href="#SVGID_18_"  overflow="visible"/>
				</clipPath>
				<path clip-path="url(#SVGID_19_)" fill="#D4088C" d="M106.901,362.079c0,2.289-1.854,4.143-4.142,4.143
					s-4.143-1.854-4.143-4.143c0-2.287,1.854-4.143,4.143-4.143S106.901,359.792,106.901,362.079"/>
			</g>
		</g>
		<g clip-path="url(#SVGID_13_)">
			<g>
				<defs>
					<rect id="SVGID_20_" x="74.361" y="341.614" width="4.264" height="4.265"/>
				</defs>
				<clipPath id="SVGID_21_">
					<use xlink:href="#SVGID_20_"  overflow="visible"/>
				</clipPath>
				<path clip-path="url(#SVGID_21_)" fill="#6EE8FC" d="M78.625,343.746c0,1.177-0.954,2.133-2.131,2.133s-2.133-0.956-2.133-2.133
					c0-1.178,0.956-2.132,2.133-2.132S78.625,342.568,78.625,343.746"/>
			</g>
		</g>
		<g clip-path="url(#SVGID_13_)">
			<g>
				<defs>
					<rect id="SVGID_22_" x="436.205" y="262.82" width="4.407" height="4.405"/>
				</defs>
				<clipPath id="SVGID_23_">
					<use xlink:href="#SVGID_22_"  overflow="visible"/>
				</clipPath>
				<path clip-path="url(#SVGID_23_)" fill="#6EE8FC" d="M440.613,265.022c0,1.217-0.987,2.203-2.205,2.203
					c-1.215,0-2.202-0.986-2.202-2.203s0.987-2.202,2.202-2.202C439.626,262.82,440.613,263.806,440.613,265.022"/>
			</g>
		</g>
		<g clip-path="url(#SVGID_13_)">
			<g>
				<defs>
					<rect id="SVGID_24_" x="26.587" y="113.134" width="6.206" height="6.205"/>
				</defs>
				<clipPath id="SVGID_25_">
					<use xlink:href="#SVGID_24_"  overflow="visible"/>
				</clipPath>
				<path clip-path="url(#SVGID_25_)" fill="#6EE8FC" d="M32.793,116.237c0,1.713-1.388,3.102-3.102,3.102
					c-1.715,0-3.103-1.388-3.103-3.102c0-1.714,1.388-3.103,3.103-3.103C31.405,113.134,32.793,114.523,32.793,116.237"/>
			</g>
		</g>
		<g clip-path="url(#SVGID_13_)">
			<g>
				<defs>
					<rect id="SVGID_26_" x="258.465" width="6.205" height="6.206"/>
				</defs>
				<clipPath id="SVGID_27_">
					<use xlink:href="#SVGID_26_"  overflow="visible"/>
				</clipPath>
				<path clip-path="url(#SVGID_27_)" fill="#6EE8FC" d="M264.671,3.103c0,1.714-1.391,3.102-3.104,3.102
					c-1.712,0-3.103-1.388-3.103-3.102S259.854,0,261.566,0C263.28,0,264.671,1.389,264.671,3.103"/>
			</g>
		</g>
		<g clip-path="url(#SVGID_13_)">
			<g>
				<defs>
					<rect id="SVGID_28_" x="41.985" y="107.642" width="3.438" height="3.44"/>
				</defs>
				<clipPath id="SVGID_29_">
					<use xlink:href="#SVGID_28_"  overflow="visible"/>
				</clipPath>
				<path clip-path="url(#SVGID_29_)" fill="#6EE8FC" d="M45.424,109.362c0,0.949-0.77,1.719-1.719,1.719s-1.719-0.771-1.719-1.719
					c0-0.95,0.77-1.719,1.719-1.719S45.424,108.412,45.424,109.362"/>
			</g>
		</g>
		<g clip-path="url(#SVGID_13_)">
			<g>
				<defs>
					<rect id="SVGID_30_" x="337.098" y="12.153" width="4.062" height="4.061"/>
				</defs>
				<clipPath id="SVGID_31_">
					<use xlink:href="#SVGID_30_"  overflow="visible"/>
				</clipPath>
				<path clip-path="url(#SVGID_31_)" fill="#D4088C" d="M341.159,14.184c0,1.121-0.908,2.031-2.031,2.031
					c-1.12,0-2.029-0.91-2.029-2.031c0-1.121,0.909-2.031,2.029-2.031C340.251,12.153,341.159,13.063,341.159,14.184"/>
			</g>
		</g>
		<polygon clip-path="url(#SVGID_13_)" fill="#6EE1F8" points="43.066,217.97 42.323,215.314 48.223,213.664 46.573,207.764 
			49.228,207.021 51.621,215.576 		"/>
		<polygon clip-path="url(#SVGID_13_)" fill="#6EE1F8" points="37.859,227.219 37.116,224.564 43.016,222.914 41.367,217.014 
			44.022,216.271 46.414,224.825 		"/>
		<polygon clip-path="url(#SVGID_13_)" fill="#6EE1F8" points="43.388,224.241 40.996,215.687 49.551,213.293 50.293,215.947 
			44.393,217.598 46.042,223.498 		"/>
		<path clip-path="url(#SVGID_13_)" fill="#6EE1F8" d="M246.982,20.747c-3.619,0-6.564-2.945-6.564-6.563s2.945-6.562,6.564-6.562
			c3.618,0,6.561,2.943,6.561,6.562S250.601,20.747,246.982,20.747 M246.982,10.379c-2.1,0-3.808,1.706-3.808,3.804
			c0,2.099,1.708,3.807,3.808,3.807c2.096,0,3.804-1.708,3.804-3.807C250.786,12.085,249.078,10.379,246.982,10.379"/>
		<path clip-path="url(#SVGID_13_)" fill="#6EE1F8" d="M390.915,349.056l-7.445-7.447l7.445-7.447l7.449,7.447L390.915,349.056z
			 M387.368,341.608l3.547,3.549l3.549-3.549l-3.549-3.549L387.368,341.608z"/>
		
			<rect x="406.019" y="80.841" transform="matrix(0.7071 0.7071 -0.7071 0.7071 178.6989 -266.9966)" clip-path="url(#SVGID_13_)" fill="#D4088C" width="11.275" height="2.757"/>
		
			<rect x="410.277" y="76.583" transform="matrix(0.7069 0.7073 -0.7073 0.7069 178.7967 -267.061)" clip-path="url(#SVGID_13_)" fill="#D4088C" width="2.756" height="11.274"/>
	</g>
	<g clip-path="url(#SVGID_2_)">
		<defs>
			<path id="SVGID_32_" d="M222.939,392.267L96.07,319.018c-3.706-2.141-5.746-5.062-5.746-8.229c0-3.891,3.015-7.861,8.271-10.897
				l121.813-70.328c5.595-3.229,12.769-4.887,19.567-4.887c5.605,0,10.953,1.13,14.937,3.43l126.87,73.247
				c3.704,2.141,5.745,5.062,5.745,8.229c0,3.891-3.016,7.859-8.272,10.896l-121.812,70.327c-5.595,3.232-12.771,4.887-19.568,4.887
				C232.271,395.692,226.923,394.566,222.939,392.267 M219.719,228.37L97.907,298.699c-5.693,3.287-8.96,7.693-8.96,12.089
				c0,3.681,2.286,7.027,6.435,9.421l126.869,73.249c4.175,2.41,9.768,3.592,15.627,3.592c7.047,0,14.473-1.711,20.254-5.05
				l121.814-70.327c5.694-3.289,8.96-7.694,8.96-12.091c0-3.681-2.284-7.027-6.435-9.424l-126.87-73.246
				c-4.174-2.409-9.767-3.592-15.625-3.592C232.93,223.32,225.503,225.031,219.719,228.37"/>
		</defs>
		<clipPath id="SVGID_33_">
			<use xlink:href="#SVGID_32_"  overflow="visible"/>
		</clipPath>
		
			<linearGradient id="SVGID_34_" gradientUnits="userSpaceOnUse" x1="66.1201" y1="333.7549" x2="67.499" y2="333.7549" gradientTransform="matrix(217.5937 0 0 -217.5937 -14298.3936 72933.1563)">
			<stop  offset="0" style="stop-color:#D4088C"/>
			<stop  offset="0.2258" style="stop-color:#8D139B"/>
			<stop  offset="0.5108" style="stop-color:#6EE1F8"/>
			<stop  offset="0.7796" style="stop-color:#6EE8FC"/>
			<stop  offset="1" style="stop-color:#6EE8FC"/>
		</linearGradient>
		<rect x="88.946" y="223.32" clip-path="url(#SVGID_33_)" fill="url(#SVGID_34_)" width="299.959" height="173.729"/>
	</g>
	<g clip-path="url(#SVGID_2_)">
		<defs>
			<rect id="SVGID_35_" x="0" y="-62.653" width="483" height="459.703"/>
		</defs>
		<clipPath id="SVGID_36_">
			<use xlink:href="#SVGID_35_"  overflow="visible"/>
		</clipPath>
		<g opacity="0.8" clip-path="url(#SVGID_36_)">
			<g>
				<defs>
					<rect id="SVGID_37_" x="128.616" y="246.498" width="220.62" height="127.374"/>
				</defs>
				<clipPath id="SVGID_38_">
					<use xlink:href="#SVGID_37_"  overflow="visible"/>
				</clipPath>
				<path clip-path="url(#SVGID_38_)" fill="#0C0F38" d="M226.859,371.273l-93.743-54.122c-6.665-3.847-5.83-10.57,1.867-15.013
					l90.007-51.965c7.696-4.442,19.337-4.926,26.001-1.077l93.743,54.122c6.666,3.849,5.831,10.57-1.865,15.012l-90.006,51.967
					C245.167,374.64,233.524,375.123,226.859,371.273"/>
			</g>
		</g>
	</g>
	<g clip-path="url(#SVGID_2_)">
		<defs>
			<path id="SVGID_39_" d="M224.158,114.013l-52.859,30.517h-49.236v137.988h0.014c-0.2,2.76,1.338,5.421,4.732,7.383l99.331,57.348
				c7.063,4.077,19.397,3.567,27.555-1.142l95.37-55.063c4.236-2.444,6.492-5.542,6.709-8.525h0.038V144.53H306.55l-54.837-31.66
				c-3.199-1.846-7.482-2.752-11.968-2.752C234.33,110.118,228.618,111.437,224.158,114.013"/>
		</defs>
		<clipPath id="SVGID_40_">
			<use xlink:href="#SVGID_39_"  overflow="visible"/>
		</clipPath>
		
			<linearGradient id="SVGID_41_" gradientUnits="userSpaceOnUse" x1="66.124" y1="333.8486" x2="67.5027" y2="333.8486" gradientTransform="matrix(206.5972 0 0 -206.5972 -13561.1699 69202.9453)">
			<stop  offset="0" style="stop-color:#A31FA9"/>
			<stop  offset="0.0665" style="stop-color:#8B17A0"/>
			<stop  offset="0.1495" style="stop-color:#750F98"/>
			<stop  offset="0.2398" style="stop-color:#640A92"/>
			<stop  offset="0.3414" style="stop-color:#5B078F"/>
			<stop  offset="0.4785" style="stop-color:#58068E"/>
			<stop  offset="0.621" style="stop-color:#4E20A2"/>
			<stop  offset="0.9248" style="stop-color:#3363D6"/>
			<stop  offset="1" style="stop-color:#2C75E4"/>
		</linearGradient>
		<rect x="121.877" y="110.118" clip-path="url(#SVGID_40_)" fill="url(#SVGID_41_)" width="233.935" height="241.208"/>
	</g>
	<g clip-path="url(#SVGID_2_)">
		<defs>
			<rect id="SVGID_42_" x="0" y="-62.653" width="483" height="459.703"/>
		</defs>
		<clipPath id="SVGID_43_">
			<use xlink:href="#SVGID_42_"  overflow="visible"/>
		</clipPath>
		<path clip-path="url(#SVGID_43_)" fill="#D4088C" d="M134.537,144.531h-12.474v137.987h0.015
			c-0.143,1.959,0.609,3.862,2.261,5.508c-1.055-1.407-1.533-2.955-1.417-4.54h-0.017V145.5h12.606
			C135.198,145.165,134.873,144.841,134.537,144.531"/>
		<path clip-path="url(#SVGID_43_)" fill="#6DE0F6" d="M340.043,144.531c-0.089,0.277-0.186,0.552-0.282,0.83h15.165v137.986h-0.036
			c-0.135,1.85-1.056,3.743-2.745,5.497c2.244-1.979,3.473-4.18,3.629-6.326h0.037V144.531H340.043z"/>
		<g opacity="0.5" clip-path="url(#SVGID_43_)">
			<g>
				<defs>
					<rect id="SVGID_44_" x="138.968" y="147.196" width="17.889" height="160.049"/>
				</defs>
				<clipPath id="SVGID_45_">
					<use xlink:href="#SVGID_44_"  overflow="visible"/>
				</clipPath>
				<polygon clip-path="url(#SVGID_45_)" fill="#D4088C" points="156.857,307.245 156.857,147.197 138.968,147.197 138.968,296.917 
									"/>
			</g>
		</g>
		<g opacity="0.3" clip-path="url(#SVGID_43_)">
			<g>
				<defs>
					<rect id="SVGID_46_" x="162.954" y="157.946" width="4.888" height="155.641"/>
				</defs>
				<clipPath id="SVGID_47_">
					<use xlink:href="#SVGID_46_"  overflow="visible"/>
				</clipPath>
				<polygon clip-path="url(#SVGID_47_)" fill="#D4088C" points="167.841,313.587 167.841,157.946 162.955,157.946 162.955,310.766 
									"/>
			</g>
		</g>
		<g opacity="0.15" clip-path="url(#SVGID_43_)">
			<g>
				<defs>
					<rect id="SVGID_48_" x="171.702" y="159.825" width="4.887" height="158.812"/>
				</defs>
				<clipPath id="SVGID_49_">
					<use xlink:href="#SVGID_48_"  overflow="visible"/>
				</clipPath>
				<polygon clip-path="url(#SVGID_49_)" fill="#D4088C" points="176.589,318.637 176.589,159.825 171.702,159.825 171.702,315.815 
									"/>
			</g>
		</g>
	</g>
	<g clip-path="url(#SVGID_2_)">
		<defs>
			<path id="SVGID_50_" d="M224.158,80.943l-95.371,55.062c-8.156,4.708-9.042,11.831-1.979,15.907l99.331,57.35
				c7.063,4.078,19.397,3.566,27.555-1.142l95.37-55.064c8.155-4.707,9.041-11.829,1.978-15.908L251.713,79.8
				c-3.2-1.847-7.482-2.752-11.968-2.752C234.33,77.047,228.618,78.368,224.158,80.943"/>
		</defs>
		<clipPath id="SVGID_51_">
			<use xlink:href="#SVGID_50_"  overflow="visible"/>
		</clipPath>
		
			<linearGradient id="SVGID_52_" gradientUnits="userSpaceOnUse" x1="66.106" y1="333.9912" x2="67.4847" y2="333.9912" gradientTransform="matrix(168.79 -0.0042 24.3652 -98.4671 -19175.8516 33032.6797)">
			<stop  offset="0" style="stop-color:#8D139B"/>
			<stop  offset="0.1652" style="stop-color:#851CA1"/>
			<stop  offset="0.4291" style="stop-color:#6E33B2"/>
			<stop  offset="0.7568" style="stop-color:#4958CD"/>
			<stop  offset="1" style="stop-color:#2979E4"/>
		</linearGradient>
		<polygon clip-path="url(#SVGID_51_)" fill="url(#SVGID_52_)" points="119.746,77.047 391.831,77.041 358.105,213.34 
			86.019,213.347 		"/>
	</g>
	<g clip-path="url(#SVGID_2_)">
		<defs>
			<rect id="SVGID_53_" x="0" y="-62.653" width="483" height="459.703"/>
		</defs>
		<clipPath id="SVGID_54_">
			<use xlink:href="#SVGID_53_"  overflow="visible"/>
		</clipPath>
		<path clip-path="url(#SVGID_54_)" fill="#D4088C" d="M227.233,209.261l-99.331-57.349c-7.063-4.076-6.177-11.199,1.978-15.908
			l95.372-55.061c4.04-2.333,9.104-3.629,14.047-3.853c-5.286,0.069-10.801,1.347-15.142,3.853l-95.371,55.061
			c-8.156,4.709-9.041,11.832-1.979,15.908l99.331,57.349c3.563,2.059,8.471,2.94,13.505,2.711
			C235.002,212.032,230.536,211.17,227.233,209.261"/>
		<path clip-path="url(#SVGID_54_)" fill="#6DE0F6" d="M351.043,137.148l-99.332-57.349c-3.57-2.06-8.486-2.94-13.528-2.708
			c4.586-0.039,8.99,0.823,12.257,2.708l99.33,57.349c7.063,4.078,6.178,11.201-1.978,15.908l-95.37,55.063
			c-4.034,2.329-9.091,3.623-14.025,3.851c5.332-0.045,10.913-1.319,15.298-3.851l95.37-55.063
			C357.219,148.349,358.104,141.226,351.043,137.148"/>
		<path clip-path="url(#SVGID_54_)" fill="#6DE0F6" d="M229.406,192.723l-73.952-42.696c-5.258-3.035-4.597-8.338,1.474-11.843
			l71.004-40.994c6.071-3.506,15.255-3.887,20.514-0.851l73.95,42.696c5.26,3.036,4.601,8.338-1.472,11.844l-71.003,40.994
			C243.85,195.377,234.664,195.76,229.406,192.723"/>
		<path clip-path="url(#SVGID_54_)" fill="#267FE5" d="M156.928,146.16l71.003-40.993c6.071-3.506,15.255-3.886,20.514-0.851
			l73.95,42.696c0.688,0.396,1.27,0.835,1.757,1.301c2.826-3.191,2.33-6.919-1.757-9.279l-73.95-42.696
			c-5.259-3.036-14.443-2.655-20.514,0.851l-71.003,40.993c-5.277,3.046-6.46,7.449-3.229,10.543
			C154.51,147.813,155.577,146.94,156.928,146.16"/>
		<path clip-path="url(#SVGID_54_)" fill="#6DE0F6" d="M256.528,219.055l84.022-48.602c0.77-0.442,1.392-1.633,1.392-2.659v-1.378
			c0-1.024-0.622-1.496-1.392-1.052l-84.022,48.602c-0.771,0.444-1.394,1.633-1.394,2.658v1.379
			C255.135,219.027,255.758,219.499,256.528,219.055"/>
		<path clip-path="url(#SVGID_54_)" fill="#267FE5" d="M338.712,169.403c0.769-0.444,1.392-1.635,1.392-2.66v-1.121l0.448-0.259
			c0.769-0.442,1.393,0.028,1.393,1.052v1.378c0,1.026-0.624,2.216-1.393,2.661l-84.023,48.6c-0.771,0.444-1.394-0.027-1.394-1.052
			v-0.257L338.712,169.403z"/>
		<path clip-path="url(#SVGID_54_)" fill="#6DE0F6" d="M256.528,233.843l84.022-48.6c0.77-0.446,1.392-1.636,1.392-2.66v-1.379
			c0-1.024-0.622-1.495-1.392-1.053l-84.022,48.602c-0.771,0.444-1.394,1.634-1.394,2.658v1.379
			C255.135,233.815,255.758,234.287,256.528,233.843"/>
		<path clip-path="url(#SVGID_54_)" fill="#267FE5" d="M338.712,184.19c0.769-0.443,1.392-1.635,1.392-2.659v-1.12l0.448-0.26
			c0.769-0.442,1.393,0.028,1.393,1.052v1.378c0,1.026-0.624,2.216-1.393,2.662l-84.023,48.6c-0.771,0.444-1.394-0.027-1.394-1.053
			v-0.257L338.712,184.19z"/>
		<path clip-path="url(#SVGID_54_)" fill="#6DE0F6" d="M256.528,248.63l84.022-48.601c0.77-0.444,1.392-1.634,1.392-2.658v-1.379
			c0-1.024-0.622-1.497-1.392-1.053l-84.022,48.602c-0.771,0.442-1.394,1.634-1.394,2.658v1.379
			C255.135,248.602,255.758,249.073,256.528,248.63"/>
		<path clip-path="url(#SVGID_54_)" fill="#267FE5" d="M338.712,198.979c0.769-0.444,1.392-1.635,1.392-2.659v-1.121l0.448-0.259
			c0.769-0.442,1.393,0.027,1.393,1.052v1.378c0,1.026-0.624,2.216-1.393,2.66l-84.023,48.601c-0.771,0.443-1.394-0.027-1.394-1.052
			v-0.257L338.712,198.979z"/>
		<path clip-path="url(#SVGID_54_)" fill="#6DE0F6" d="M256.528,263.418l84.022-48.601c0.77-0.445,1.392-1.635,1.392-2.659v-1.379
			c0-1.024-0.622-1.497-1.392-1.053l-84.022,48.601c-0.771,0.444-1.394,1.635-1.394,2.659v1.379
			C255.135,263.39,255.758,263.862,256.528,263.418"/>
		<path clip-path="url(#SVGID_54_)" fill="#267FE5" d="M338.712,213.765c0.769-0.442,1.392-1.634,1.392-2.658v-1.12l0.448-0.26
			c0.769-0.443,1.393,0.028,1.393,1.052v1.378c0,1.026-0.624,2.216-1.393,2.661l-84.023,48.601
			c-0.771,0.444-1.394-0.027-1.394-1.053v-0.258L338.712,213.765z"/>
		<path clip-path="url(#SVGID_54_)" fill="#6DE0F6" d="M256.528,278.204l84.022-48.6c0.77-0.444,1.392-1.634,1.392-2.66v-1.378
			c0-1.023-0.622-1.496-1.392-1.052l-84.022,48.602c-0.771,0.442-1.394,1.634-1.394,2.658v1.379
			C255.135,278.176,255.758,278.648,256.528,278.204"/>
		<path clip-path="url(#SVGID_54_)" fill="#267FE5" d="M338.712,228.554c0.769-0.444,1.392-1.635,1.392-2.659v-1.121l0.448-0.259
			c0.769-0.443,1.393,0.027,1.393,1.052v1.378c0,1.026-0.624,2.216-1.393,2.66l-84.023,48.6c-0.771,0.444-1.394-0.026-1.394-1.051
			v-0.258L338.712,228.554z"/>
		<path clip-path="url(#SVGID_54_)" fill="#6DE0F6" d="M256.528,292.992l84.022-48.601c0.77-0.443,1.392-1.635,1.392-2.659v-1.378
			c0-1.024-0.622-1.496-1.392-1.052l-84.022,48.6c-0.771,0.444-1.394,1.635-1.394,2.659v1.378
			C255.135,292.966,255.758,293.437,256.528,292.992"/>
		<path clip-path="url(#SVGID_54_)" fill="#267FE5" d="M338.712,243.342c0.769-0.444,1.392-1.636,1.392-2.66v-1.12l0.448-0.259
			c0.769-0.444,1.393,0.027,1.393,1.052v1.378c0,1.024-0.624,2.216-1.393,2.659l-84.023,48.601
			c-0.771,0.444-1.394-0.026-1.394-1.053v-0.257L338.712,243.342z"/>
		<path clip-path="url(#SVGID_54_)" fill="#6DE0F6" d="M256.528,307.779l84.022-48.6c0.77-0.444,1.392-1.634,1.392-2.659v-1.378
			c0-1.026-0.622-1.498-1.392-1.053l-84.022,48.601c-0.771,0.443-1.394,1.635-1.394,2.659v1.379
			C255.135,307.751,255.758,308.224,256.528,307.779"/>
		<path clip-path="url(#SVGID_54_)" fill="#267FE5" d="M338.712,258.128c0.769-0.444,1.392-1.634,1.392-2.658v-1.121l0.448-0.259
			c0.769-0.444,1.393,0.026,1.393,1.053v1.378c0,1.025-0.624,2.215-1.393,2.659l-84.023,48.6c-0.771,0.444-1.394-0.026-1.394-1.051
			v-0.258L338.712,258.128z"/>
		<path clip-path="url(#SVGID_54_)" fill="#6DE0F6" d="M256.528,322.567l84.022-48.601c0.77-0.443,1.392-1.635,1.392-2.659v-1.378
			c0-1.024-0.622-1.497-1.392-1.052l-84.022,48.6c-0.771,0.444-1.394,1.635-1.394,2.659v1.378
			C255.135,322.539,255.758,323.012,256.528,322.567"/>
		<path clip-path="url(#SVGID_54_)" fill="#267FE5" d="M338.712,272.917c0.769-0.444,1.392-1.636,1.392-2.66v-1.12l0.448-0.259
			c0.769-0.444,1.393,0.027,1.393,1.052v1.378c0,1.024-0.624,2.216-1.393,2.659l-84.023,48.601
			c-0.771,0.444-1.394-0.026-1.394-1.053v-0.257L338.712,272.917z"/>
		<path clip-path="url(#SVGID_54_)" fill="#6DE0F6" d="M256.528,337.354l84.022-48.6c0.77-0.444,1.392-1.635,1.392-2.659v-1.378
			c0-1.026-0.622-1.497-1.392-1.053l-84.022,48.601c-0.771,0.443-1.394,1.635-1.394,2.659v1.378
			C255.135,337.327,255.758,337.799,256.528,337.354"/>
		<path clip-path="url(#SVGID_54_)" fill="#267FE5" d="M338.712,287.703c0.769-0.444,1.392-1.634,1.392-2.658v-1.122l0.448-0.258
			c0.769-0.443,1.393,0.026,1.393,1.053v1.378c0,1.024-0.624,2.215-1.393,2.659l-84.023,48.6c-0.771,0.444-1.394-0.027-1.394-1.052
			v-0.257L338.712,287.703z"/>
		<path clip-path="url(#SVGID_54_)" fill="#6DE0F6" d="M241.181,221.46c0,1.245-1.009,2.255-2.255,2.255
			c-1.247,0-2.256-1.01-2.256-2.255c0-1.246,1.009-2.255,2.256-2.255C240.172,219.205,241.181,220.214,241.181,221.46"/>
		<path clip-path="url(#SVGID_54_)" fill="#267FE5" d="M238.926,222.869c-1.1,0-2.014-0.79-2.213-1.832
			c-0.026,0.138-0.043,0.279-0.043,0.423c0,1.245,1.011,2.255,2.256,2.255c1.246,0,2.255-1.01,2.255-2.255
			c0-0.144-0.017-0.285-0.042-0.423C240.939,222.079,240.025,222.869,238.926,222.869"/>
		<path clip-path="url(#SVGID_54_)" fill="#6DE0F6" d="M241.181,236.247c0,1.246-1.009,2.256-2.255,2.256
			c-1.247,0-2.256-1.01-2.256-2.256c0-1.245,1.009-2.255,2.256-2.255C240.172,233.992,241.181,235.002,241.181,236.247"/>
		<path clip-path="url(#SVGID_54_)" fill="#267FE5" d="M238.926,237.656c-1.1,0-2.014-0.789-2.213-1.832
			c-0.026,0.138-0.043,0.278-0.043,0.423c0,1.246,1.011,2.256,2.256,2.256c1.246,0,2.255-1.01,2.255-2.256
			c0-0.145-0.017-0.285-0.042-0.423C240.939,236.867,240.025,237.656,238.926,237.656"/>
		<path clip-path="url(#SVGID_54_)" fill="#6DE0F6" d="M241.181,251.035c0,1.245-1.009,2.255-2.255,2.255
			c-1.247,0-2.256-1.01-2.256-2.255s1.009-2.255,2.256-2.255C240.172,248.78,241.181,249.79,241.181,251.035"/>
		<path clip-path="url(#SVGID_54_)" fill="#267FE5" d="M238.926,252.444c-1.1,0-2.014-0.789-2.213-1.832
			c-0.026,0.138-0.043,0.277-0.043,0.423c0,1.245,1.011,2.255,2.256,2.255c1.246,0,2.255-1.01,2.255-2.255
			c0-0.146-0.017-0.285-0.042-0.423C240.939,251.655,240.025,252.444,238.926,252.444"/>
		<path clip-path="url(#SVGID_54_)" fill="#6DE0F6" d="M241.181,265.822c0,1.246-1.009,2.256-2.255,2.256
			c-1.247,0-2.256-1.01-2.256-2.256c0-1.245,1.009-2.255,2.256-2.255C240.172,263.567,241.181,264.577,241.181,265.822"/>
		<path clip-path="url(#SVGID_54_)" fill="#267FE5" d="M238.926,267.232c-1.1,0-2.014-0.79-2.213-1.833
			c-0.026,0.137-0.043,0.278-0.043,0.423c0,1.246,1.011,2.256,2.256,2.256c1.246,0,2.255-1.01,2.255-2.256
			c0-0.145-0.017-0.286-0.042-0.423C240.939,266.442,240.025,267.232,238.926,267.232"/>
		<path clip-path="url(#SVGID_54_)" fill="#6DE0F6" d="M241.181,280.61c0,1.245-1.009,2.255-2.255,2.255
			c-1.247,0-2.256-1.01-2.256-2.255s1.009-2.255,2.256-2.255C240.172,278.355,241.181,279.365,241.181,280.61"/>
		<path clip-path="url(#SVGID_54_)" fill="#267FE5" d="M238.926,282.02c-1.1,0-2.014-0.789-2.213-1.832
			c-0.026,0.138-0.043,0.277-0.043,0.423c0,1.245,1.011,2.255,2.256,2.255c1.246,0,2.255-1.01,2.255-2.255
			c0-0.146-0.017-0.285-0.042-0.423C240.939,281.23,240.025,282.02,238.926,282.02"/>
		<path clip-path="url(#SVGID_54_)" fill="#6DE0F6" d="M241.181,295.397c0,1.246-1.009,2.256-2.255,2.256
			c-1.247,0-2.256-1.01-2.256-2.256s1.009-2.256,2.256-2.256C240.172,293.142,241.181,294.151,241.181,295.397"/>
		<path clip-path="url(#SVGID_54_)" fill="#267FE5" d="M238.926,296.808c-1.1,0-2.014-0.79-2.213-1.833
			c-0.026,0.137-0.043,0.278-0.043,0.424c0,1.245,1.011,2.255,2.256,2.255c1.246,0,2.255-1.01,2.255-2.255
			c0-0.146-0.017-0.287-0.042-0.424C240.939,296.018,240.025,296.808,238.926,296.808"/>
		<path clip-path="url(#SVGID_54_)" fill="#6DE0F6" d="M241.181,310.186c0,1.245-1.009,2.255-2.255,2.255
			c-1.247,0-2.256-1.01-2.256-2.255c0-1.246,1.009-2.255,2.256-2.255C240.172,307.931,241.181,308.939,241.181,310.186"/>
		<path clip-path="url(#SVGID_54_)" fill="#267FE5" d="M238.926,311.595c-1.1,0-2.014-0.789-2.213-1.832
			c-0.026,0.137-0.043,0.277-0.043,0.423c0,1.245,1.011,2.255,2.256,2.255c1.246,0,2.255-1.01,2.255-2.255
			c0-0.146-0.017-0.286-0.042-0.423C240.939,310.806,240.025,311.595,238.926,311.595"/>
		<path clip-path="url(#SVGID_54_)" fill="#6DE0F6" d="M241.181,324.974c0,1.245-1.009,2.255-2.255,2.255
			c-1.247,0-2.256-1.01-2.256-2.255c0-1.247,1.009-2.257,2.256-2.257C240.172,322.717,241.181,323.727,241.181,324.974"/>
		<path clip-path="url(#SVGID_54_)" fill="#267FE5" d="M238.926,326.383c-1.1,0-2.014-0.79-2.213-1.834
			c-0.026,0.138-0.043,0.279-0.043,0.425c0,1.245,1.011,2.255,2.256,2.255c1.246,0,2.255-1.01,2.255-2.255
			c0-0.146-0.017-0.287-0.042-0.425C240.939,325.593,240.025,326.383,238.926,326.383"/>
		<path clip-path="url(#SVGID_54_)" fill="#6DE0F6" d="M241.181,339.76c0,1.246-1.009,2.255-2.255,2.255
			c-1.247,0-2.256-1.009-2.256-2.255c0-1.245,1.009-2.255,2.256-2.255C240.172,337.505,241.181,338.515,241.181,339.76"/>
		<path clip-path="url(#SVGID_54_)" fill="#267FE5" d="M238.926,341.17c-1.1,0-2.014-0.789-2.213-1.832
			c-0.026,0.137-0.043,0.277-0.043,0.422c0,1.246,1.011,2.255,2.256,2.255c1.246,0,2.255-1.009,2.255-2.255
			c0-0.145-0.017-0.285-0.042-0.422C240.939,340.381,240.025,341.17,238.926,341.17"/>
		<path clip-path="url(#SVGID_54_)" fill="#161242" d="M206.681,318.133c-0.451,0-0.935-0.143-1.421-0.424l-3.365-1.942
			c-1.83-1.057-3.317-3.885-3.317-6.307V218.7c0-1.344,0.458-2.379,1.257-2.841c0.681-0.394,1.534-0.335,2.401,0.166l3.366,1.942
			c1.829,1.056,3.316,3.886,3.316,6.308v90.759c0,1.342-0.459,2.379-1.259,2.841C207.362,318.047,207.031,318.133,206.681,318.133
			 M200.817,216.288c-0.233,0-0.448,0.055-0.638,0.164c-0.583,0.337-0.917,1.156-0.917,2.248v90.76c0,2.203,1.336,4.768,2.975,5.714
			l3.366,1.943c0.645,0.373,1.254,0.428,1.716,0.165c0.582-0.336,0.917-1.156,0.917-2.248v-90.759c0-2.204-1.335-4.768-2.974-5.715
			l-3.365-1.942C201.516,216.398,201.147,216.288,200.817,216.288"/>
		<path clip-path="url(#SVGID_54_)" fill="#161242" d="M150.708,286.305c-0.453,0-0.937-0.142-1.424-0.424l-3.364-1.941
			c-1.83-1.056-3.316-3.886-3.316-6.309v-90.758c0-1.344,0.459-2.379,1.258-2.841c0.68-0.396,1.535-0.335,2.4,0.166l3.364,1.941
			c1.831,1.057,3.318,3.887,3.318,6.309v90.758c0,1.345-0.458,2.38-1.259,2.842C151.387,286.22,151.057,286.305,150.708,286.305
			 M146.261,283.347l3.364,1.941c0.648,0.374,1.257,0.43,1.718,0.167c0.582-0.337,0.917-1.155,0.917-2.249v-90.758
			c0-2.204-1.336-4.769-2.976-5.717l-3.364-1.941c-0.647-0.372-1.257-0.429-1.716-0.165c-0.582,0.337-0.917,1.156-0.917,2.248
			v90.758C143.286,279.836,144.623,282.399,146.261,283.347"/>
		<path clip-path="url(#SVGID_54_)" fill="#161242" d="M178.693,302.22c-0.451,0-0.935-0.143-1.421-0.424l-3.365-1.943
			c-1.83-1.055-3.317-3.885-3.317-6.307v-90.759c0-1.344,0.458-2.379,1.257-2.841c0.681-0.395,1.534-0.337,2.401,0.165l3.365,1.943
			c1.829,1.055,3.316,3.885,3.316,6.307v90.76c0,1.343-0.458,2.378-1.257,2.84C179.375,302.134,179.045,302.22,178.693,302.22
			 M172.829,200.374c-0.233,0-0.448,0.056-0.638,0.164c-0.583,0.337-0.917,1.157-0.917,2.249v90.759
			c0,2.204,1.335,4.769,2.975,5.715l3.365,1.942c0.644,0.373,1.255,0.43,1.716,0.166c0.583-0.337,0.917-1.156,0.917-2.248v-90.76
			c0-2.204-1.335-4.769-2.975-5.715l-3.365-1.942C173.528,200.484,173.16,200.374,172.829,200.374"/>
		<g opacity="0.5" clip-path="url(#SVGID_54_)">
			<g>
				<defs>
					<rect id="SVGID_55_" x="324.735" y="123.683" width="16.495" height="17.281"/>
				</defs>
				<clipPath id="SVGID_56_">
					<use xlink:href="#SVGID_55_"  overflow="visible"/>
				</clipPath>
				<polygon clip-path="url(#SVGID_56_)" fill="#13113D" points="327.914,123.683 324.734,140.965 341.229,131.504 				"/>
			</g>
		</g>
	</g>
	<g clip-path="url(#SVGID_2_)">
		<defs>
			<path id="SVGID_57_" d="M237.447,42.398l3.846,4.385v32.524c0,7.103,4.317,15.35,9.645,18.426l70.778,40.866
				c0.075,0.042,0.148,0.071,0.221,0.112l2.286,2.605l3.594-2.097c0.051-0.025,0.099-0.059,0.148-0.087l0.341-0.198l-0.011-0.011
				c1.882-1.26,3.066-3.908,3.066-7.615V92.167l-90.068-52L237.447,42.398z"/>
		</defs>
		<clipPath id="SVGID_58_">
			<use xlink:href="#SVGID_57_"  overflow="visible"/>
		</clipPath>
		
			<linearGradient id="SVGID_59_" gradientUnits="userSpaceOnUse" x1="66.0742" y1="334.0977" x2="67.4518" y2="334.0977" gradientTransform="matrix(140.6667 32.3343 32.3343 -140.6667 -19959.2988 44916.9766)">
			<stop  offset="0" style="stop-color:#8D139B"/>
			<stop  offset="0.1652" style="stop-color:#851CA1"/>
			<stop  offset="0.4291" style="stop-color:#6E33B2"/>
			<stop  offset="0.7568" style="stop-color:#4958CD"/>
			<stop  offset="1" style="stop-color:#2979E4"/>
		</linearGradient>
		<polygon clip-path="url(#SVGID_58_)" fill="url(#SVGID_59_)" points="242.16,19.663 353.444,45.244 326.648,161.821 
			215.363,136.241 		"/>
	</g>
	<g clip-path="url(#SVGID_2_)">
		<defs>
			<rect id="SVGID_60_" x="0" y="-62.653" width="483" height="459.703"/>
		</defs>
		<clipPath id="SVGID_61_">
			<use xlink:href="#SVGID_60_"  overflow="visible"/>
		</clipPath>
		<path clip-path="url(#SVGID_61_)" fill="#6DE0F6" d="M237.447,42.398l90.067,52.001v39.142c0,7.101-4.315,10.364-9.644,7.289
			l-70.779-40.865c-5.327-3.075-9.644-11.324-9.644-18.425V42.398z"/>
		<g opacity="0.5" clip-path="url(#SVGID_61_)">
			<g>
				<defs>
					<rect id="SVGID_62_" x="140.698" y="150.724" width="94.626" height="53.888"/>
				</defs>
				<clipPath id="SVGID_63_">
					<use xlink:href="#SVGID_62_"  overflow="visible"/>
				</clipPath>
				<polygon clip-path="url(#SVGID_63_)" fill="#38025B" points="235.324,194.583 218.083,204.611 140.697,159.931 156.726,150.724 
									"/>
			</g>
		</g>
	</g>
	<g clip-path="url(#SVGID_2_)">
		<defs>
			<path id="SVGID_64_" d="M149.729,95.183l3.846,4.384v32.524c0,7.103,4.318,15.352,9.643,18.427l70.782,40.864
				c0.073,0.043,0.146,0.073,0.221,0.112l2.284,2.604l3.594-2.096c0.051-0.026,0.1-0.059,0.148-0.087l0.339-0.199l-0.009-0.011
				c1.881-1.26,3.067-3.906,3.067-7.614v-39.142l-90.069-52L149.729,95.183z"/>
		</defs>
		<clipPath id="SVGID_65_">
			<use xlink:href="#SVGID_64_"  overflow="visible"/>
		</clipPath>
		
			<linearGradient id="SVGID_66_" gradientUnits="userSpaceOnUse" x1="65.9331" y1="333.9619" x2="67.3118" y2="333.9619" gradientTransform="matrix(140.6668 32.3343 32.3343 -140.6668 -20022.9883 44955.3359)">
			<stop  offset="0" style="stop-color:#8D139B"/>
			<stop  offset="0.1652" style="stop-color:#851CA1"/>
			<stop  offset="0.4291" style="stop-color:#6E33B2"/>
			<stop  offset="0.7568" style="stop-color:#4958CD"/>
			<stop  offset="1" style="stop-color:#2979E4"/>
		</linearGradient>
		<polygon clip-path="url(#SVGID_65_)" fill="url(#SVGID_66_)" points="154.442,72.447 265.727,98.027 238.93,214.604 
			127.645,189.023 		"/>
	</g>
	<g clip-path="url(#SVGID_2_)">
		<defs>
			<path id="SVGID_67_" d="M149.729,134.324c0,7.102,4.317,15.351,9.643,18.425l70.782,40.866c5.325,3.074,9.645-0.19,9.645-7.291
				v-39.14l-90.069-52.001V134.324z"/>
		</defs>
		<clipPath id="SVGID_68_">
			<use xlink:href="#SVGID_67_"  overflow="visible"/>
		</clipPath>
		
			<linearGradient id="SVGID_69_" gradientUnits="userSpaceOnUse" x1="66.0996" y1="333.9609" x2="67.4783" y2="333.9609" gradientTransform="matrix(129.5004 -0.6263 -56.545 -205.3194 10459.0732 68756.3047)">
			<stop  offset="0" style="stop-color:#8D139B"/>
			<stop  offset="0.1652" style="stop-color:#851CA1"/>
			<stop  offset="0.4291" style="stop-color:#6E33B2"/>
			<stop  offset="0.7568" style="stop-color:#4958CD"/>
			<stop  offset="1" style="stop-color:#2979E4"/>
		</linearGradient>
		<polygon clip-path="url(#SVGID_68_)" fill="url(#SVGID_69_)" points="121.811,95.318 239.677,94.748 267.715,196.554 
			149.848,197.125 		"/>
	</g>
	<g clip-path="url(#SVGID_2_)">
		<defs>
			<rect id="SVGID_70_" x="0" y="-62.653" width="483" height="459.703"/>
		</defs>
		<clipPath id="SVGID_71_">
			<use xlink:href="#SVGID_70_"  overflow="visible"/>
		</clipPath>
		<g opacity="0.5" clip-path="url(#SVGID_71_)">
			<g>
				<defs>
					<rect id="SVGID_72_" x="327.914" y="123.683" width="13.579" height="7.976"/>
				</defs>
				<clipPath id="SVGID_73_">
					<use xlink:href="#SVGID_72_"  overflow="visible"/>
				</clipPath>
				<path clip-path="url(#SVGID_73_)" fill="#38025B" d="M341.493,131.659l-13.581-7.978L341.493,131.659z"/>
			</g>
		</g>
		<g clip-path="url(#SVGID_71_)">
			<g>
				<defs>
					<rect id="SVGID_74_" x="0.918" y="171.562" width="4.061" height="4.062"/>
				</defs>
				<clipPath id="SVGID_75_">
					<use xlink:href="#SVGID_74_"  overflow="visible"/>
				</clipPath>
				<path clip-path="url(#SVGID_75_)" fill="#D4088C" d="M4.979,173.593c0,1.12-0.909,2.03-2.031,2.03c-1.121,0-2.03-0.91-2.03-2.03
					c0-1.121,0.909-2.03,2.03-2.03C4.07,171.563,4.979,172.472,4.979,173.593"/>
			</g>
		</g>
	</g>
</g>
</svg>
