<svg x="0" y="0" width="85.20000000000007" height="85.43066278953181" filtersec="colorsb1685791917" class="image-svg-svg primary" style="overflow: visible;"><svg xmlns="http://www.w3.org/2000/svg" viewBox="0 0 99.7300033569336 100"><path fill="#ffffff" d="M99.73 51.88v22.29L76.94 86.29V64l22.79-12.12zM76.94 38.72L99.73 26.6v22.28L76.94 61V38.72z"></path><path fill="#ffffff" d="M0 51.88v22.29l22.79 12.12V64L0 51.88zM22.79 38.72L0 26.6v22.28L22.79 61V38.72z"></path><path fill="#ffffff" d="M73.94 65.6v22.28L51.15 100V77.72L73.94 65.6z"></path><path fill="#ffffff" d="M25.8 65.6v22.28L48.59 100V77.72L25.8 65.6z"></path><path d="M49.85 0L3.55 24.7l22.71 12.07L50 23.46l23.51 13.29 22.68-12z" fill="#ffffff"></path><path fill="#ffffff" d="M48.59 27.46v21.42L25.8 61V40.17l22.79-12.71z"></path><path d="M71.1 63.13L49.59 51.66 28.63 62.84 49.9 75.02l21.2-11.89z" fill="#ffffff"></path><path fill="#ffffff" d="M51.15 27.46v21.42L73.94 61V40.17L51.15 27.46z"></path></svg>
</svg>