<svg xmlns="http://www.w3.org/2000/svg" viewBox="0 0 220 80" fill="none" aria-label="Catalyst Logo" data-icon="true" color="#293662" class="sc-6f146c85-9 izFhlA"><g fill="#123CD3"><path d="M80.85 41.237a9.35 9.35 0 0 1 3.648-3.69q2.34-1.322 5.302-1.322 3.632 0 6.218 1.918t3.458 5.23h-5.463q-.61-1.279-1.729-1.947-1.118-.669-2.542-.669-2.295 0-3.719 1.599-1.425 1.598-1.424 4.27 0 2.675 1.424 4.272 1.425 1.599 3.719 1.598 1.424 0 2.542-.668 1.119-.668 1.73-1.947h5.462q-.871 3.313-3.458 5.216Q93.432 57 89.8 57q-2.963 0-5.302-1.322a9.37 9.37 0 0 1-3.648-3.675q-1.305-2.354-1.306-5.376 0-3.021 1.306-5.39M102.483 44.331q.944-1.887 2.573-2.905 1.626-1.017 3.632-1.017 1.714 0 3.006.697 1.293.698 1.991 1.83v-2.295h4.968v16.214h-4.968v-2.296q-.727 1.134-2.019 1.831-1.295.697-3.008.697a6.6 6.6 0 0 1-3.602-1.031q-1.629-1.031-2.573-2.935-.944-1.903-.944-4.402t.944-4.388m10.17 1.482q-1.032-1.075-2.513-1.075-1.483 0-2.514 1.061-1.032 1.06-1.031 2.92 0 1.86 1.031 2.95 1.031 1.089 2.514 1.089 1.481 0 2.513-1.075t1.031-2.935q0-1.86-1.031-2.935M131.291 52.642v4.213h-2.528q-2.702 0-4.212-1.323-1.511-1.32-1.511-4.314v-6.45h-1.977V40.64h1.977V36.69h4.968v3.951h3.255v4.127h-3.255v6.508q0 .727.349 1.046.348.32 1.162.32zM134.008 44.331q.945-1.887 2.572-2.905 1.626-1.017 3.632-1.017 1.714 0 3.007.697 1.293.698 1.99 1.83v-2.295h4.969v16.214h-4.969v-2.296q-.727 1.134-2.019 1.831t-3.007.697a6.6 6.6 0 0 1-3.603-1.031q-1.627-1.031-2.572-2.935-.945-1.903-.945-4.402t.945-4.388m10.17 1.482q-1.031-1.075-2.513-1.075-1.483 0-2.514 1.061t-1.031 2.92 1.031 2.95q1.03 1.089 2.514 1.089 1.481 0 2.513-1.075t1.031-2.935q0-1.86-1.031-2.935M158.75 35.354v21.5h-4.969v-21.5zM178.913 40.641l-10.169 23.913h-5.346l3.718-8.251-6.594-15.662h5.549l3.748 10.14 3.72-10.14zM183.533 56.361q-1.656-.727-2.615-1.99a5.24 5.24 0 0 1-1.076-2.834h4.911q.088.844.784 1.366.698.523 1.716.523.929 0 1.438-.363.507-.363.508-.944 0-.698-.726-1.032-.728-.334-2.354-.74-1.743-.408-2.906-.858a5 5 0 0 1-2.004-1.423q-.843-.975-.843-2.63 0-1.394.77-2.543.77-1.147 2.266-1.816 1.496-.668 3.56-.668 3.05 0 4.808 1.511 1.758 1.512 2.02 4.01h-4.591q-.117-.843-.741-1.337-.625-.494-1.641-.494-.872 0-1.338.335a1.07 1.07 0 0 0-.464.915q0 .697.741 1.045.74.349 2.31.698 1.801.465 2.935.915 1.133.45 1.99 1.453.856 1.002.886 2.687 0 1.425-.799 2.543-.8 1.119-2.296 1.758-1.496.64-3.471.64-2.121 0-3.778-.727M205.964 52.642v4.213h-2.528q-2.702 0-4.212-1.323-1.51-1.32-1.511-4.314v-6.45h-1.976V40.64h1.976V36.69h4.968v3.951h3.255v4.127h-3.255v6.508q0 .727.349 1.046.348.32 1.162.32zM87.928 22.23q-.434.82-1.394 1.334-.959.514-2.458.514H81.88v4.916h-1.986V16.878h4.183q1.394 0 2.363.48.966.479 1.447 1.298.48.82.48 1.83 0 .925-.438 1.744m-2.16-.288q.557-.514.557-1.456 0-1.987-2.249-1.987H81.88v3.957h2.197q1.133 0 1.692-.514M93.447 19.641q.722-.41 1.717-.41v2.057h-.505q-1.17 0-1.77.593t-.602 2.057v5.056H90.3v-9.606h1.987v1.395q.436-.732 1.16-1.142M98.738 28.532a4.45 4.45 0 0 1-1.727-1.743q-.627-1.124-.627-2.607-.001-1.464.646-2.597a4.45 4.45 0 0 1 1.76-1.743q1.116-.61 2.493-.611 1.377 0 2.493.61a4.46 4.46 0 0 1 1.761 1.744q.644 1.133.645 2.597 0 1.465-.662 2.598a4.6 4.6 0 0 1-1.805 1.752 5.2 5.2 0 0 1-2.52.619q-1.359 0-2.457-.619m3.896-1.473q.671-.366 1.089-1.098.42-.732.419-1.779 0-1.045-.402-1.769a2.7 2.7 0 0 0-1.062-1.09 2.9 2.9 0 0 0-1.43-.366q-.767 0-1.42.367a2.6 2.6 0 0 0-1.038 1.09q-.384.723-.384 1.768 0 1.553.793 2.397.795.846 1.996.846.768 0 1.439-.366M110.173 30.877q0 1.412-.705 2.048-.707.637-2.049.637h-1.028v-1.674h.679q.61 0 .863-.235.254-.236.254-.776V19.388h1.986zm-1.883-13.128a1.23 1.23 0 0 1-.366-.906q0-.54.366-.906.367-.366.907-.367.523 0 .889.367.367.366.367.906t-.367.906q-.366.367-.889.367a1.23 1.23 0 0 1-.907-.367M121.557 24.932h-7.339q.087 1.151.854 1.848t1.883.697q1.603 0 2.265-1.342h2.146a4.34 4.34 0 0 1-1.578 2.17q-1.144.846-2.833.846-1.377 0-2.468-.619a4.4 4.4 0 0 1-1.708-1.743q-.619-1.124-.618-2.607 0-1.48.601-2.606.6-1.125 1.691-1.734 1.088-.61 2.502-.611 1.359 0 2.423.593 1.063.592 1.656 1.665t.593 2.467q0 .54-.07.976m-2.005-1.604q-.017-1.099-.784-1.76-.767-.663-1.901-.663-1.029 0-1.761.653-.733.655-.871 1.77zM123.555 21.576q.6-1.125 1.664-1.734 1.063-.61 2.44-.611 1.743 0 2.886.828 1.142.828 1.544 2.363h-2.146a2.26 2.26 0 0 0-.837-1.116q-.574-.401-1.447-.4-1.22-.001-1.944.862-.723.863-.723 2.414 0 1.553.723 2.424.725.871 1.944.871 1.727 0 2.284-1.516h2.146q-.42 1.464-1.57 2.327-1.151.864-2.86.863-1.377 0-2.44-.619a4.33 4.33 0 0 1-1.664-1.743q-.602-1.124-.602-2.607 0-1.48.602-2.606M136.428 21.01v5.317q0 .54.253.776.252.235.863.235h1.22v1.656h-1.568q-1.344 0-2.057-.628-.715-.627-.715-2.04V21.01h-1.134v-1.62h1.134V17h2.004v2.389h2.336v1.62z"></path></g><path fill="url(#prefix__a)" d="M36.626 53.998c-.02-.01.02.013 0 0-3.574-1.641-6.479-4.887-7.958-8.55H18.484C22.127 55.784 31.981 63.19 43.562 63.19a26.46 26.46 0 0 0 16.594-5.816q.235-.27.465-.544-1.696.222-3.454.224c-3.847 0-7.502-.818-10.8-2.287a15.5 15.5 0 0 1-3.349.364c-1.326 0-2.632.075-3.86-.24-.007 0 .008.003 0 0"></path><path fill="url(#prefix__b)" d="M36.626 53.998a16 16 0 0 0 2.532.893c1.228.315 2.534.24 3.86.24 1.15 0 2.27-.125 3.348-.364q-.606-.266-1.189-.566a26.7 26.7 0 0 1-9.976-8.753h-6.533c1.479 3.662 4.384 6.909 7.958 8.55"></path><path fill="url(#prefix__c)" d="M60.156 57.374a27.2 27.2 0 0 1-14.102 8.521C34.302 68.714 22.52 63.39 16.52 53.54a27.7 27.7 0 0 1-3.31-8.091h5.274C22.127 55.784 31.981 63.19 43.563 63.19a26.46 26.46 0 0 0 16.593-5.816"></path><path fill="url(#prefix__d)" d="M66.292 45.448a27.64 27.64 0 0 1-5.671 11.382q-1.696.222-3.454.224a26.5 26.5 0 0 1-11.99-2.853 26.7 26.7 0 0 1-9.976-8.753z"></path><path fill="url(#prefix__e)" d="M65.448 32.84C61.515 24.635 53.492 18.765 44.02 17.86h-.005a22.7 22.7 0 0 0-6.16-.295 22.6 22.6 0 0 0-4.372.82 22.43 22.43 0 0 0-11.535 7.884 22 22 0 0 0-4.569 13.48v2h-4.086v-2c.002-8.555 4.133-16.153 10.526-20.946q.002-.01.004-.005a26.5 26.5 0 0 1 12.734-5.122q1.615-.2 3.281-.2c12.242 0 22.545 8.205 25.61 19.363"></path><path fill="url(#prefix__f)" d="M25.692 37.745h4.14a10 10 0 0 1 1.098-2.98c2.087-3.72 6.425-5.861 10.873-5.002 4.125.795 7.261 3.982 8.056 7.938a10.65 10.65 0 0 0-10.154-4.012H39.7a6.1 6.1 0 0 0-3.532 1.238q-.002.003-.005.002l-.005.005a6.03 6.03 0 0 0-2.402 4.815v2.001H21.458V39.75c.01-7.062 4.086-13.179 10.033-16.185a18.4 18.4 0 0 1 8.372-1.981c7.227.01 13.556 4.17 16.536 10.306-2.678-4.605-7.667-7.702-13.38-7.702-2.996 0-5.795.852-8.163 2.329l-.005.002h-.002c-1.551.571-2.979 1.4-4.224 2.445a14.07 14.07 0 0 0-4.933 8.782"></path><path fill="url(#prefix__g)" d="M50.056 39.749v2.001h-4.044v-2.001c0-3.353-2.745-6.068-6.13-6.065q-.088-.001-.177.005A10.65 10.65 0 0 1 49.86 37.7v.002a10 10 0 0 1 .197 2.046"></path><path fill="url(#prefix__h)" d="M66.378 39.749v2.001h-12.25V39.75c-.018-7.815-6.43-14.134-14.322-14.12a14.4 14.4 0 0 0-4.95.887 15.4 15.4 0 0 1 8.162-2.329c5.714 0 10.703 3.097 13.381 7.702a18 18 0 0 1 1.701 5.856h4.104c-.906-10.139-8.557-18.082-18.184-19.884 9.472.904 17.494 6.774 21.428 14.979v.002a26 26 0 0 1 .93 6.907"></path><mask id="prefix__i" width="54" height="54" x="13" y="13" maskUnits="userSpaceOnUse" style="mask-type: luminance;"><path fill="#fff" d="M60.156 57.374a27.2 27.2 0 0 1-14.102 8.521C34.302 68.714 22.52 63.39 16.52 53.54a27.7 27.7 0 0 1-3.31-8.092h5.274C22.127 55.784 31.981 63.19 43.563 63.19a26.46 26.46 0 0 0 16.593-5.816M35.2 45.447a26.7 26.7 0 0 0 11.165 9.32 26.5 26.5 0 0 0 10.801 2.286q1.758-.001 3.454-.223a27.64 27.64 0 0 0 5.671-11.382zm4.637-31.97q-1.666 0-3.281.2a26.5 26.5 0 0 0-12.734 5.122q-.002-.004-.005.005c-6.392 4.793-10.523 12.391-10.525 20.945v2.001h4.086v-2a22 22 0 0 1 4.569-13.48 22.43 22.43 0 0 1 11.535-7.884 22.6 22.6 0 0 1 4.371-.82 22.7 22.7 0 0 1 6.161.296h.005c9.472.903 17.494 6.774 21.428 14.978-3.065-11.158-13.369-19.363-25.61-19.363m-9.213 15.486a14.2 14.2 0 0 1 4.224-2.444h.002q.002-.004.005-.003a15.38 15.38 0 0 1 8.162-2.328c5.714 0 10.703 3.096 13.381 7.702-2.98-6.137-9.31-10.297-16.536-10.307a18.4 18.4 0 0 0-8.372 1.982c-5.947 3.005-10.023 9.122-10.033 16.184v2.001h12.298v-2c0-1.963.94-3.708 2.402-4.815l.005-.005q.003 0 .005-.003A6.1 6.1 0 0 1 39.7 33.69h.005a10.65 10.65 0 0 1 10.154 4.012c-.795-3.955-3.931-7.143-8.057-7.938-4.448-.86-8.785 1.282-10.872 5.002-.51.905-.886 1.907-1.098 2.98h-4.14a14.07 14.07 0 0 1 4.933-8.782"></path></mask><g mask="url(#prefix__i)"><path fill="url(#prefix__j)" d="M60.852 62.119c6.533 0 11.83-5.297 11.83-11.83S67.385 38.46 60.852 38.46s-11.83 5.296-11.83 11.83c0 6.532 5.297 11.828 11.83 11.828"></path><path fill="url(#prefix__k)" d="M24.666 43.059c8.333 0 15.087-6.755 15.087-15.088S33 12.884 24.666 12.884 9.58 19.64 9.58 27.971 16.334 43.06 24.666 43.06"></path></g><defs><linearGradient id="prefix__c" x1="13.209" x2="60.156" y1="56.047" y2="56.047" gradientUnits="userSpaceOnUse"><stop stop-color="#2C4DDF"></stop><stop offset="1" stop-color="#DA67C6"></stop></linearGradient><linearGradient id="prefix__d" x1="40.658" x2="70.545" y1="51.251" y2="51.251" gradientUnits="userSpaceOnUse"><stop stop-color="#2C4DDF"></stop><stop offset="1" stop-color="#DA67C6"></stop></linearGradient><linearGradient id="prefix__e" x1="13.293" x2="65.448" y1="27.614" y2="27.614" gradientUnits="userSpaceOnUse"><stop stop-color="#2C4DDF"></stop><stop offset="1" stop-color="#DA67C6"></stop></linearGradient><linearGradient id="prefix__f" x1="24.053" x2="58.994" y1="31.667" y2="31.667" gradientUnits="userSpaceOnUse"><stop stop-color="#283ECD"></stop><stop offset="0.871" stop-color="#DA67C6"></stop></linearGradient><linearGradient id="prefix__g" x1="39.705" x2="50.056" y1="37.65" y2="37.65" gradientUnits="userSpaceOnUse"><stop stop-color="#161832"></stop><stop offset="1" stop-color="#2336C2"></stop></linearGradient><linearGradient id="prefix__h" x1="34.856" x2="66.378" y1="29.806" y2="29.806" gradientUnits="userSpaceOnUse"><stop stop-color="#161832"></stop><stop offset="1" stop-color="#2336C2"></stop></linearGradient><radialGradient id="prefix__a" cx="0" cy="0" r="1" gradientTransform="translate(37.046 50.571)scale(30.167)" gradientUnits="userSpaceOnUse"><stop stop-color="#2A41EA"></stop><stop offset="0.236" stop-color="#2940E5"></stop><stop offset="1" stop-color="#161832"></stop></radialGradient><radialGradient id="prefix__b" cx="0" cy="0" r="1" gradientTransform="translate(41.152 44.398)scale(17.2728)" gradientUnits="userSpaceOnUse"><stop stop-color="#2A41EA"></stop><stop offset="1" stop-color="#161832"></stop></radialGradient><radialGradient id="prefix__j" cx="0" cy="0" r="1" gradientTransform="translate(63.303 48.196)scale(9.32603)" gradientUnits="userSpaceOnUse"><stop stop-color="#fff" stop-opacity="0.6"></stop><stop offset="0.991" stop-color="#fff" stop-opacity="0"></stop></radialGradient><radialGradient id="prefix__k" cx="0" cy="0" r="1" gradientTransform="translate(25.44 27.584)scale(15.0871)" gradientUnits="userSpaceOnUse"><stop stop-color="#fff" stop-opacity="0.6"></stop><stop offset="0.991" stop-color="#fff" stop-opacity="0"></stop></radialGradient></defs></svg>